<?xml version="1.0" encoding="utf-8"?>
<!-- Generator: Adobe Illustrator 26.1.0, SVG Export Plug-In . SVG Version: 6.00 Build 0)  -->
<svg version="1.1" id="Layer_1" xmlns="http://www.w3.org/2000/svg" xmlns:xlink="http://www.w3.org/1999/xlink" x="0px" y="0px"
	 viewBox="0 0 360 72" style="enable-background:new 0 0 360 72;" xml:space="preserve">
<style type="text/css">
	.st0{fill:#414141;}
	.st1{fill:#F9A533;}
	.st2{fill:url(#SVGID_1_);}
	.st3{fill:url(#SVGID_00000169542621398398016390000013830449383754463379_);}
	.st4{fill:url(#SVGID_00000176762830199885866200000012769273778433466759_);}
	.st5{fill:url(#SVGID_00000178198481521952235720000003054050824771315895_);}
	.st6{fill:url(#SVGID_00000180367767082995965640000006582497214779750814_);}
	.st7{fill:url(#SVGID_00000036245090180182525920000016781527383357858955_);}
</style>
<g>
	<g>
		<rect x="3.1" y="67.18" class="st0" width="0.37" height="3.01"/>
		<path class="st0" d="M6.43,67.56c-0.14-0.13-0.3-0.22-0.49-0.29c-0.19-0.07-0.4-0.1-0.63-0.1H4.44v3.01h0.85
			c0.28,0,0.52-0.04,0.72-0.13c0.2-0.09,0.36-0.21,0.49-0.36c0.13-0.15,0.22-0.32,0.28-0.5c0.06-0.18,0.09-0.37,0.09-0.56
			c0-0.23-0.04-0.43-0.11-0.61C6.67,67.84,6.57,67.69,6.43,67.56z M6.42,69.15c-0.04,0.14-0.11,0.27-0.2,0.39
			c-0.09,0.11-0.21,0.2-0.36,0.27s-0.33,0.1-0.55,0.1H4.79v-2.44h0.45c0.29,0,0.52,0.06,0.7,0.17c0.18,0.11,0.31,0.26,0.4,0.45
			c0.09,0.19,0.13,0.39,0.13,0.62C6.48,68.85,6.46,69.01,6.42,69.15z"/>
		<polygon class="st0" points="7.93,68.81 9.06,68.81 9.06,68.51 7.93,68.51 7.93,67.49 9.22,67.49 9.22,67.18 7.59,67.18 
			7.59,70.19 9.35,70.19 9.35,69.88 7.93,69.88 		"/>
		<polygon class="st0" points="12.14,69.58 10.43,67.18 10.35,67.18 10.19,67.18 10.07,67.18 10.07,70.19 10.4,70.19 10.36,67.68 
			12.13,70.19 12.15,70.19 12.28,70.19 12.43,70.19 12.43,67.18 12.11,67.18 		"/>
		<polygon class="st0" points="14.05,67.18 13.04,67.18 13.04,67.48 14.05,67.48 14.05,70.19 14.42,70.19 14.42,67.48 15.44,67.48 
			15.44,67.18 14.42,67.18 		"/>
		<rect x="16.08" y="67.18" class="st0" width="0.37" height="3.01"/>
		<polygon class="st0" points="18.1,67.18 17.08,67.18 17.08,67.48 18.1,67.48 18.1,70.19 18.47,70.19 18.47,67.48 19.49,67.48 
			19.49,67.18 18.47,67.18 		"/>
		<polygon class="st0" points="21.82,67.18 21.01,68.65 20.19,67.18 19.75,67.18 20.8,68.95 20.8,70.19 21.16,70.19 21.16,68.94 
			22.21,67.18 		"/>
		<path class="st0" d="M25.55,69.86c-0.13,0.06-0.27,0.09-0.42,0.09c-0.2,0-0.38-0.05-0.54-0.16c-0.16-0.11-0.29-0.26-0.39-0.45
			c-0.1-0.19-0.14-0.42-0.14-0.68c0-0.25,0.04-0.46,0.12-0.65c0.08-0.18,0.2-0.33,0.35-0.43c0.15-0.1,0.33-0.15,0.54-0.15
			c0.14,0,0.28,0.03,0.4,0.08c0.12,0.05,0.25,0.13,0.37,0.23l0.17-0.34c-0.13-0.09-0.27-0.15-0.41-0.19
			c-0.14-0.04-0.29-0.06-0.44-0.06c-0.21,0-0.41,0.04-0.58,0.11c-0.18,0.07-0.34,0.18-0.47,0.32c-0.13,0.14-0.24,0.31-0.31,0.5
			c-0.07,0.2-0.11,0.41-0.11,0.65c0,0.3,0.06,0.57,0.18,0.79c0.12,0.23,0.29,0.4,0.5,0.53c0.21,0.13,0.46,0.19,0.75,0.19
			c0.18,0,0.34-0.03,0.5-0.08c0.16-0.05,0.31-0.13,0.45-0.23l-0.16-0.31C25.79,69.72,25.68,69.8,25.55,69.86z"/>
		<path class="st0" d="M28.62,67.33c-0.21-0.13-0.45-0.2-0.72-0.2c-0.2,0-0.39,0.04-0.57,0.11c-0.18,0.07-0.33,0.18-0.47,0.32
			c-0.14,0.14-0.24,0.3-0.32,0.49c-0.07,0.19-0.11,0.41-0.11,0.64c0,0.29,0.06,0.56,0.18,0.79c0.12,0.23,0.29,0.42,0.5,0.55
			c0.21,0.13,0.45,0.2,0.72,0.2c0.2,0,0.39-0.04,0.57-0.11c0.18-0.07,0.33-0.18,0.46-0.32c0.13-0.14,0.24-0.3,0.31-0.49
			c0.08-0.19,0.11-0.41,0.11-0.64c0-0.3-0.06-0.56-0.18-0.79C29,67.64,28.83,67.46,28.62,67.33z M28.79,69.36
			c-0.08,0.18-0.2,0.33-0.35,0.43c-0.15,0.1-0.33,0.15-0.53,0.15c-0.2,0-0.38-0.05-0.54-0.16c-0.16-0.11-0.29-0.26-0.39-0.46
			c-0.09-0.19-0.14-0.42-0.14-0.69c0-0.24,0.04-0.46,0.13-0.64c0.08-0.18,0.2-0.33,0.35-0.43c0.15-0.1,0.32-0.15,0.52-0.15
			c0.2,0,0.39,0.05,0.55,0.16c0.16,0.11,0.29,0.26,0.39,0.46c0.1,0.2,0.14,0.42,0.14,0.69C28.91,68.96,28.87,69.18,28.79,69.36z"/>
		<polygon class="st0" points="30.38,67.18 30.02,67.18 30.02,70.19 30.14,70.19 30.38,70.19 31.79,70.19 31.79,69.88 30.38,69.88 
					"/>
		<polygon class="st0" points="32.74,67.18 32.38,67.18 32.38,70.19 32.5,70.19 32.74,70.19 34.15,70.19 34.15,69.88 32.74,69.88 		
			"/>
		<polygon class="st0" points="35.09,68.81 36.21,68.81 36.21,68.51 35.09,68.51 35.09,67.49 36.37,67.49 36.37,67.18 34.74,67.18 
			34.74,70.19 36.51,70.19 36.51,69.88 35.09,69.88 		"/>
		<path class="st0" d="M38.57,69.05h0.6v0.77c-0.06,0.02-0.11,0.06-0.17,0.08c-0.13,0.03-0.26,0.05-0.39,0.05
			c-0.24,0-0.44-0.05-0.62-0.16c-0.18-0.11-0.32-0.26-0.42-0.45c-0.1-0.19-0.15-0.42-0.15-0.67c0-0.24,0.04-0.46,0.13-0.64
			c0.09-0.19,0.21-0.33,0.37-0.44c0.16-0.11,0.36-0.16,0.58-0.16c0.14,0,0.28,0.03,0.42,0.08c0.14,0.05,0.28,0.15,0.41,0.28
			l0.16-0.35c-0.12-0.1-0.27-0.18-0.43-0.23c-0.16-0.05-0.33-0.07-0.49-0.07c-0.23,0-0.44,0.04-0.62,0.12
			c-0.19,0.08-0.35,0.19-0.49,0.33c-0.14,0.14-0.24,0.31-0.32,0.51c-0.08,0.2-0.11,0.41-0.11,0.64c0,0.3,0.06,0.56,0.19,0.79
			c0.13,0.23,0.3,0.4,0.53,0.53c0.23,0.13,0.5,0.19,0.81,0.19c0.11,0,0.22-0.01,0.33-0.03c0.11-0.02,0.22-0.05,0.33-0.08
			c0.11-0.04,0.21-0.08,0.3-0.14v-1.22h-0.93V69.05z"/>
		<polygon class="st0" points="40.65,68.81 41.77,68.81 41.77,68.51 40.65,68.51 40.65,67.49 41.93,67.49 41.93,67.18 40.3,67.18 
			40.3,70.19 42.07,70.19 42.07,69.88 40.65,69.88 		"/>
		<path class="st0" d="M45.84,67.33c-0.21-0.13-0.45-0.2-0.72-0.2c-0.2,0-0.39,0.04-0.57,0.11c-0.18,0.07-0.33,0.18-0.47,0.32
			c-0.14,0.14-0.24,0.3-0.32,0.49c-0.07,0.19-0.11,0.41-0.11,0.64c0,0.29,0.06,0.56,0.18,0.79c0.12,0.23,0.29,0.42,0.5,0.55
			c0.21,0.13,0.45,0.2,0.72,0.2c0.2,0,0.39-0.04,0.57-0.11c0.18-0.07,0.33-0.18,0.46-0.32c0.13-0.14,0.24-0.3,0.31-0.49
			c0.08-0.19,0.11-0.41,0.11-0.64c0-0.3-0.06-0.56-0.18-0.79C46.21,67.64,46.05,67.46,45.84,67.33z M46,69.36
			c-0.08,0.18-0.2,0.33-0.35,0.43c-0.15,0.1-0.33,0.15-0.53,0.15c-0.2,0-0.38-0.05-0.54-0.16c-0.16-0.11-0.29-0.26-0.39-0.46
			c-0.09-0.19-0.14-0.42-0.14-0.69c0-0.24,0.04-0.46,0.13-0.64c0.08-0.18,0.2-0.33,0.35-0.43c0.15-0.1,0.32-0.15,0.52-0.15
			c0.2,0,0.39,0.05,0.55,0.16c0.16,0.11,0.29,0.26,0.39,0.46c0.1,0.2,0.14,0.42,0.14,0.69C46.13,68.96,46.09,69.18,46,69.36z"/>
		<polygon class="st0" points="47.24,70.19 47.6,70.19 47.6,68.92 48.72,68.92 48.72,68.61 47.6,68.61 47.6,67.49 48.88,67.49 
			48.88,67.18 47.24,67.18 		"/>
		<polygon class="st0" points="52.61,68.5 51,68.5 51,67.18 50.64,67.18 50.64,70.19 51,70.19 51,68.82 52.61,68.82 52.61,70.19 
			52.97,70.19 52.97,67.18 52.61,67.18 		"/>
		<rect x="53.93" y="67.18" class="st0" width="0.37" height="3.01"/>
		<path class="st0" d="M56.61,69.05h0.6v0.77c-0.06,0.02-0.11,0.06-0.17,0.08c-0.13,0.03-0.26,0.05-0.39,0.05
			c-0.24,0-0.44-0.05-0.62-0.16c-0.18-0.11-0.32-0.26-0.42-0.45c-0.1-0.19-0.15-0.42-0.15-0.67c0-0.24,0.04-0.46,0.13-0.64
			c0.09-0.19,0.21-0.33,0.37-0.44c0.16-0.11,0.36-0.16,0.58-0.16c0.14,0,0.28,0.03,0.42,0.08c0.14,0.05,0.28,0.15,0.41,0.28
			l0.16-0.35c-0.12-0.1-0.27-0.18-0.43-0.23c-0.16-0.05-0.33-0.07-0.49-0.07c-0.23,0-0.44,0.04-0.62,0.12
			c-0.19,0.08-0.35,0.19-0.49,0.33c-0.14,0.14-0.24,0.31-0.32,0.51c-0.08,0.2-0.11,0.41-0.11,0.64c0,0.3,0.06,0.56,0.19,0.79
			c0.13,0.23,0.3,0.4,0.53,0.53c0.23,0.13,0.5,0.19,0.81,0.19c0.11,0,0.22-0.01,0.33-0.03c0.11-0.02,0.22-0.05,0.33-0.08
			c0.11-0.04,0.21-0.08,0.3-0.14v-1.22h-0.93V69.05z"/>
		<polygon class="st0" points="60.32,68.5 58.71,68.5 58.71,67.18 58.35,67.18 58.35,70.19 58.71,70.19 58.71,68.82 60.32,68.82 
			60.32,70.19 60.68,70.19 60.68,67.18 60.32,67.18 		"/>
		<polygon class="st0" points="61.96,68.81 63.09,68.81 63.09,68.51 61.96,68.51 61.96,67.49 63.24,67.49 63.24,67.18 61.62,67.18 
			61.62,70.19 63.38,70.19 63.38,69.88 61.96,69.88 		"/>
		<path class="st0" d="M66.41,69.95c-0.03,0-0.06,0-0.09,0c-0.06,0-0.12-0.01-0.18-0.04c-0.06-0.02-0.12-0.07-0.19-0.13
			c-0.07-0.06-0.14-0.15-0.23-0.27l-0.51-0.7c0.11-0.05,0.2-0.11,0.29-0.19c0.09-0.09,0.17-0.19,0.22-0.31
			c0.05-0.12,0.08-0.24,0.08-0.37c0-0.16-0.04-0.3-0.12-0.41c-0.08-0.11-0.19-0.2-0.33-0.26c-0.14-0.06-0.31-0.09-0.5-0.09H64.1
			v3.01h0.35v-1.27h0.36c0.03,0,0.06-0.02,0.1-0.02l0.48,0.75c0.09,0.14,0.18,0.25,0.26,0.34c0.08,0.09,0.17,0.15,0.25,0.18
			c0.09,0.04,0.19,0.06,0.3,0.06c0.06,0,0.12-0.01,0.18-0.02c0.06-0.01,0.13-0.03,0.2-0.06l-0.07-0.22
			C66.48,69.94,66.45,69.95,66.41,69.95z M64.45,68.64v-1.18h0.39c0.2,0,0.35,0.05,0.46,0.15c0.11,0.1,0.16,0.23,0.16,0.39
			c0,0.11-0.03,0.22-0.08,0.32c-0.06,0.1-0.13,0.18-0.22,0.23c-0.09,0.06-0.19,0.09-0.29,0.09H64.45z"/>
		<polygon class="st0" points="68.42,68.81 69.54,68.81 69.54,68.51 68.42,68.51 68.42,67.49 69.7,67.49 69.7,67.18 68.07,67.18 
			68.07,70.19 69.84,70.19 69.84,69.88 68.42,69.88 		"/>
		<path class="st0" d="M72.55,67.56c-0.14-0.13-0.3-0.22-0.49-0.29c-0.19-0.07-0.4-0.1-0.63-0.1h-0.87v3.01h0.85
			c0.28,0,0.52-0.04,0.72-0.13c0.2-0.09,0.36-0.21,0.49-0.36c0.13-0.15,0.22-0.32,0.28-0.5c0.06-0.18,0.09-0.37,0.09-0.56
			c0-0.23-0.04-0.43-0.11-0.61C72.79,67.84,72.69,67.69,72.55,67.56z M72.54,69.15c-0.04,0.14-0.11,0.27-0.2,0.39
			c-0.09,0.11-0.21,0.2-0.36,0.27s-0.33,0.1-0.55,0.1h-0.52v-2.44h0.45c0.29,0,0.52,0.06,0.7,0.17c0.18,0.11,0.31,0.26,0.4,0.45
			c0.09,0.19,0.13,0.39,0.13,0.62C72.6,68.85,72.58,69.01,72.54,69.15z"/>
		<path class="st0" d="M75.65,69.02c0,0.18-0.03,0.33-0.1,0.47c-0.06,0.14-0.16,0.24-0.28,0.32s-0.26,0.11-0.43,0.11
			c-0.17,0-0.32-0.04-0.44-0.12c-0.12-0.08-0.22-0.19-0.29-0.34c-0.07-0.15-0.1-0.32-0.1-0.53v-1.75h-0.37v1.83
			c0,0.25,0.05,0.47,0.14,0.65c0.1,0.18,0.23,0.32,0.4,0.42c0.17,0.1,0.37,0.15,0.59,0.15c0.24,0,0.45-0.05,0.63-0.16
			c0.18-0.11,0.31-0.26,0.41-0.46c0.1-0.19,0.15-0.42,0.15-0.69v-1.75h-0.31V69.02z"/>
		<path class="st0" d="M78.5,69.86c-0.13,0.06-0.27,0.09-0.42,0.09c-0.2,0-0.38-0.05-0.54-0.16c-0.16-0.11-0.29-0.26-0.39-0.45
			c-0.1-0.19-0.14-0.42-0.14-0.68c0-0.25,0.04-0.46,0.12-0.65c0.08-0.18,0.2-0.33,0.35-0.43c0.15-0.1,0.33-0.15,0.54-0.15
			c0.14,0,0.28,0.03,0.4,0.08c0.12,0.05,0.25,0.13,0.37,0.23l0.17-0.34c-0.13-0.09-0.27-0.15-0.41-0.19
			c-0.14-0.04-0.29-0.06-0.44-0.06c-0.21,0-0.41,0.04-0.58,0.11c-0.18,0.07-0.34,0.18-0.47,0.32c-0.13,0.14-0.24,0.31-0.31,0.5
			c-0.07,0.2-0.11,0.41-0.11,0.65c0,0.3,0.06,0.57,0.18,0.79c0.12,0.23,0.29,0.4,0.5,0.53c0.21,0.13,0.46,0.19,0.75,0.19
			c0.18,0,0.34-0.03,0.5-0.08c0.16-0.05,0.31-0.13,0.45-0.23l-0.16-0.31C78.74,69.72,78.62,69.8,78.5,69.86z"/>
		<path class="st0" d="M80.48,67.18l-1.14,3.01h0.36l0.34-1h1.1l0.34,1h0.39l-1.09-3.01H80.48z M80.15,68.88l0.44-1.29l0.45,1.29
			H80.15z"/>
		<polygon class="st0" points="82.9,67.18 81.89,67.18 81.89,67.48 82.9,67.48 82.9,70.19 83.27,70.19 83.27,67.48 84.29,67.48 
			84.29,67.18 83.27,67.18 		"/>
		<rect x="84.93" y="67.18" class="st0" width="0.37" height="3.01"/>
		<path class="st0" d="M88.23,67.33c-0.21-0.13-0.45-0.2-0.72-0.2c-0.2,0-0.39,0.04-0.57,0.11c-0.18,0.07-0.33,0.18-0.47,0.32
			c-0.14,0.14-0.24,0.3-0.32,0.49c-0.07,0.19-0.11,0.41-0.11,0.64c0,0.29,0.06,0.56,0.18,0.79c0.12,0.23,0.29,0.42,0.5,0.55
			c0.21,0.13,0.45,0.2,0.72,0.2c0.2,0,0.39-0.04,0.57-0.11c0.18-0.07,0.33-0.18,0.46-0.32c0.13-0.14,0.24-0.3,0.31-0.49
			c0.08-0.19,0.11-0.41,0.11-0.64c0-0.3-0.06-0.56-0.18-0.79C88.61,67.64,88.44,67.46,88.23,67.33z M88.4,69.36
			c-0.08,0.18-0.2,0.33-0.35,0.43c-0.15,0.1-0.33,0.15-0.53,0.15c-0.2,0-0.38-0.05-0.54-0.16c-0.16-0.11-0.29-0.26-0.39-0.46
			c-0.09-0.19-0.14-0.42-0.14-0.69c0-0.24,0.04-0.46,0.13-0.64c0.08-0.18,0.2-0.33,0.35-0.43c0.15-0.1,0.32-0.15,0.52-0.15
			c0.2,0,0.39,0.05,0.55,0.16c0.16,0.11,0.29,0.26,0.39,0.46c0.1,0.2,0.14,0.42,0.14,0.69C88.52,68.96,88.48,69.18,88.4,69.36z"/>
		<polygon class="st0" points="91.67,67.18 91.7,69.58 90,67.18 89.91,67.18 89.76,67.18 89.63,67.18 89.63,70.19 89.96,70.19 
			89.92,67.68 91.7,70.19 91.71,70.19 91.84,70.19 91.99,70.19 91.99,67.18 		"/>
	</g>
	<polygon class="st1" points="119.37,0 86.17,12.52 98.97,13.66 101.44,13.89 113.88,15 121.52,15.69 124.05,14.73 126.73,13.71 
		142.69,7.67 151.9,4.18 153.74,3.48 154.7,3.11 	"/>
	<g>
		<linearGradient id="SVGID_1_" gradientUnits="userSpaceOnUse" x1="153.4903" y1="46.287" x2="2.9676" y2="46.287">
			<stop  offset="0" style="stop-color:#16113F"/>
			<stop  offset="1" style="stop-color:#2B2B6C"/>
		</linearGradient>
		<rect x="3.13" y="30.07" class="st2" width="6.46" height="32.44"/>
		
			<linearGradient id="SVGID_00000136389826110334491540000016170122212919408043_" gradientUnits="userSpaceOnUse" x1="153.4903" y1="46.287" x2="2.9676" y2="46.287">
			<stop  offset="0" style="stop-color:#16113F"/>
			<stop  offset="1" style="stop-color:#2B2B6C"/>
		</linearGradient>
		<path style="fill:url(#SVGID_00000136389826110334491540000016170122212919408043_);" d="M35.32,57.63
			c-1.45,0.69-3.02,1.04-4.73,1.04c-1.91,0-3.67-0.53-5.3-1.6c-1.63-1.07-2.93-2.56-3.92-4.49c-0.99-1.92-1.48-4.18-1.48-6.78
			c0-2.43,0.39-4.53,1.16-6.29c0.77-1.76,1.89-3.11,3.35-4.04c1.46-0.94,3.2-1.4,5.2-1.4c1.54,0,3.03,0.3,4.46,0.91
			c1.43,0.61,2.88,1.55,4.36,2.83l2.86-5.52c-1.61-0.95-3.3-1.67-5.08-2.14c-1.77-0.48-3.53-0.71-5.27-0.71
			c-2.43,0-4.72,0.39-6.85,1.18c-2.14,0.79-4.03,1.93-5.67,3.43c-1.64,1.5-2.93,3.32-3.87,5.47c-0.94,2.15-1.4,4.61-1.4,7.37
			c0,3.22,0.71,6.06,2.12,8.5c1.41,2.45,3.38,4.36,5.92,5.72c2.53,1.36,5.47,2.05,8.82,2.05c2.1,0,4.13-0.27,6.09-0.81
			c1.95-0.54,3.79-1.37,5.5-2.49l-2.61-4.93C37.98,56.03,36.76,56.94,35.32,57.63z"/>
		
			<linearGradient id="SVGID_00000044882953890078482310000008326420795886140809_" gradientUnits="userSpaceOnUse" x1="153.4903" y1="46.287" x2="2.9676" y2="46.287">
			<stop  offset="0" style="stop-color:#16113F"/>
			<stop  offset="1" style="stop-color:#2B2B6C"/>
		</linearGradient>
		<polygon style="fill:url(#SVGID_00000044882953890078482310000008326420795886140809_);" points="65.54,43.53 49.71,43.53 
			49.71,30.07 43.45,30.07 43.45,62.51 49.71,62.51 49.71,48.51 65.54,48.51 65.54,62.51 71.75,62.51 71.75,30.07 65.54,30.07 		"/>
		
			<linearGradient id="SVGID_00000156563662456235852680000018126710633349249202_" gradientUnits="userSpaceOnUse" x1="153.4903" y1="46.287" x2="2.9676" y2="46.287">
			<stop  offset="0" style="stop-color:#16113F"/>
			<stop  offset="1" style="stop-color:#2B2B6C"/>
		</linearGradient>
		<path style="fill:url(#SVGID_00000156563662456235852680000018126710633349249202_);" d="M83.18,48.46h11.78v-4.78H83.18V35h13.66
			v-4.93H77.17v32.44h16.45c0.29-1.76,0.75-3.38,1.42-4.93H83.18V48.46z"/>
		
			<linearGradient id="SVGID_00000003787139227971732380000008603179348358252172_" gradientUnits="userSpaceOnUse" x1="153.4903" y1="50.2958" x2="2.9676" y2="50.2958">
			<stop  offset="0" style="stop-color:#16113F"/>
			<stop  offset="1" style="stop-color:#2B2B6C"/>
		</linearGradient>
		<path style="fill:url(#SVGID_00000003787139227971732380000008603179348358252172_);" d="M128.8,36.29
			c-0.33-2.67-1-5.11-1.96-7.35c-1.15,0.23-2.3,0.44-3.44,0.59c-0.97,0.13-2,0.24-3.05,0.33c-1,0.08-2.01,0.12-3.02,0.14
			c1.47,4.97-0.55,10.74-8.28,16.73c-10.54,8.22-13.04,12.86-12.51,23.4c4.73,0.89,8.49,3.21,9.38-0.63
			c1.88-7.86,17.24,10.18,17.42-3.66c0-1.79,2.23-3.22,2.77-4.02c0.45-0.71-0.27-2.05-1.07-2.14c-0.71-0.18,2.05,0.18,2.23-0.35
			c0.18-0.63-0.18-2.06-0.35-3.22c-0.18-1.16-0.81-1.61,0.8-1.96c1.7-0.45,4.02-1.43,2.95-2.86
			C122.19,39.95,130.04,42.99,128.8,36.29z"/>
		
			<linearGradient id="SVGID_00000061435377368369389250000006095896147788113082_" gradientUnits="userSpaceOnUse" x1="153.4903" y1="45.6633" x2="2.9676" y2="45.6633">
			<stop  offset="0" style="stop-color:#16113F"/>
			<stop  offset="1" style="stop-color:#2B2B6C"/>
		</linearGradient>
		<path style="fill:url(#SVGID_00000061435377368369389250000006095896147788113082_);" d="M155.51,51.29
			c-8.49-11.34-0.63-8.3-1.88-15c-0.85-6.79-3.87-12.17-8.25-16.23c-1.09,2.07-4.71,4.03-7.03,5.12c-0.36,0.17-0.74,0.34-1.12,0.5
			c1.86,3.05,3.13,6.58,3.63,10.6c1.25,6.7-6.61,3.66,1.88,15c1.07,1.43-1.25,2.41-2.95,2.86c-1.61,0.36-0.98,0.8-0.8,1.96
			c0.18,1.16,0.53,2.59,0.35,3.22c-0.18,0.53-2.94,0.18-2.23,0.35c0.8,0.09,1.52,1.43,1.07,2.14c-0.54,0.8-2.77,2.23-2.77,4.02
			c-0.01,0.76-0.07,1.42-0.16,2c5.17,1.7,12.81,7.74,12.94-2c0-1.79,2.23-3.22,2.77-4.02c0.45-0.71-0.27-2.05-1.07-2.14
			c-0.71-0.18,2.05,0.18,2.23-0.35c0.18-0.63-0.18-2.06-0.35-3.22c-0.18-1.16-0.81-1.61,0.8-1.96
			C154.25,53.71,156.57,52.72,155.51,51.29z"/>
	</g>
	<path class="st1" d="M144.19,18.59l-1.15-8.39l-10.25,3.88l-5.09,1.93l-5.83,2.21l-1.44-0.13l-19.92-1.79
		c-0.4-0.08-0.81-0.15-1.21-0.21l0.01,0.1l1.15,8.39l0.02,0l-0.02,0.23c0.24,1.77,9,4.39,19.76,3.54c0.97-0.08,1.96-0.18,2.96-0.32
		c1.9-0.26,3.72-0.62,5.45-1.05c3.48-0.86,6.57-2,9.06-3.17c4.06-1.91,6.53-3.91,6.49-4.94l-0.01-0.18L144.19,18.59z"/>
</g>
<g>
	<g>
		<g>
			<rect x="176.8" y="28.68" class="st0" width="1.3" height="10.55"/>
			<path class="st0" d="M188.48,30.03c-0.48-0.44-1.06-0.78-1.73-1.01c-0.67-0.23-1.41-0.35-2.21-0.35h-3.05v10.55h2.97
				c0.98,0,1.83-0.16,2.53-0.46c0.7-0.31,1.28-0.73,1.72-1.26c0.44-0.53,0.77-1.12,0.97-1.76c0.21-0.65,0.31-1.31,0.31-1.98
				c0-0.79-0.13-1.5-0.39-2.12C189.34,31.01,188.96,30.48,188.48,30.03z M188.45,35.59c-0.14,0.5-0.37,0.95-0.69,1.35
				c-0.32,0.4-0.74,0.72-1.27,0.95c-0.53,0.23-1.17,0.34-1.92,0.34h-1.81v-8.55h1.59c1.01,0,1.84,0.19,2.47,0.58
				c0.63,0.39,1.1,0.91,1.4,1.56c0.3,0.65,0.45,1.37,0.45,2.16C188.66,34.56,188.59,35.09,188.45,35.59z"/>
			<polygon class="st0" points="193.75,34.4 197.69,34.4 197.69,33.34 193.75,33.34 193.75,29.77 198.25,29.77 198.25,28.68 
				192.54,28.68 192.54,39.23 198.72,39.23 198.72,38.14 193.75,38.14 			"/>
			<polygon class="st0" points="208.5,37.11 202.51,28.68 202.21,28.68 201.67,28.68 201.24,28.68 201.24,39.23 202.39,39.23 
				202.24,30.42 208.47,39.23 208.53,39.23 208.98,39.23 209.51,39.23 209.51,28.68 208.38,28.68 			"/>
			<polygon class="st0" points="215.21,28.68 211.64,28.68 211.64,29.75 215.21,29.75 215.21,39.23 216.49,39.23 216.49,29.75 
				220.08,29.75 220.08,28.68 216.49,28.68 			"/>
			<rect x="222.3" y="28.68" class="st0" width="1.3" height="10.55"/>
			<polygon class="st0" points="229.4,28.68 225.83,28.68 225.83,29.75 229.4,29.75 229.4,39.23 230.68,39.23 230.68,29.75 
				234.27,29.75 234.27,28.68 230.68,28.68 			"/>
			<polygon class="st0" points="242.45,28.68 239.59,33.84 236.73,28.68 235.18,28.68 238.85,34.91 238.85,39.23 240.14,39.23 
				240.14,34.87 243.81,28.68 			"/>
			<path class="st0" d="M255.53,38.08c-0.45,0.21-0.94,0.31-1.48,0.31c-0.69,0-1.32-0.19-1.89-0.57c-0.57-0.38-1.02-0.91-1.36-1.59
				c-0.34-0.68-0.5-1.47-0.5-2.38c0-0.87,0.14-1.62,0.44-2.27c0.29-0.65,0.7-1.15,1.23-1.51c0.53-0.36,1.16-0.54,1.89-0.54
				c0.5,0,0.97,0.09,1.4,0.27c0.43,0.18,0.86,0.45,1.28,0.81l0.59-1.2c-0.45-0.3-0.93-0.52-1.44-0.67
				c-0.51-0.15-1.03-0.22-1.56-0.22c-0.74,0-1.42,0.13-2.05,0.39c-0.63,0.26-1.18,0.64-1.65,1.12c-0.47,0.49-0.84,1.07-1.1,1.75
				c-0.26,0.68-0.39,1.45-0.39,2.29c0,1.06,0.21,1.98,0.63,2.78c0.42,0.8,1,1.42,1.75,1.86c0.75,0.44,1.62,0.67,2.62,0.67
				c0.62,0,1.21-0.09,1.76-0.27c0.55-0.18,1.07-0.45,1.56-0.8l-0.55-1.08C256.37,37.59,255.98,37.87,255.53,38.08z"/>
			<path class="st0" d="M266.29,29.21c-0.74-0.46-1.58-0.69-2.52-0.69c-0.71,0-1.37,0.13-1.98,0.39c-0.61,0.26-1.16,0.63-1.64,1.11
				c-0.48,0.48-0.85,1.06-1.11,1.73c-0.26,0.67-0.39,1.43-0.39,2.26c0,1.03,0.21,1.95,0.63,2.77c0.42,0.82,1.01,1.46,1.75,1.92
				c0.74,0.46,1.59,0.69,2.53,0.69c0.71,0,1.37-0.13,1.98-0.39c0.61-0.26,1.15-0.63,1.62-1.11c0.46-0.48,0.83-1.06,1.09-1.73
				c0.26-0.67,0.4-1.43,0.4-2.26c0-1.04-0.21-1.96-0.63-2.77C267.6,30.3,267.03,29.67,266.29,29.21z M266.86,36.33
				c-0.29,0.65-0.71,1.15-1.23,1.51c-0.53,0.36-1.14,0.54-1.85,0.54c-0.7,0-1.33-0.19-1.9-0.57c-0.57-0.38-1.02-0.91-1.35-1.6
				c-0.33-0.68-0.49-1.49-0.49-2.4c0-0.86,0.15-1.61,0.44-2.25c0.29-0.65,0.71-1.15,1.23-1.5c0.53-0.35,1.13-0.53,1.81-0.53
				c0.72,0,1.36,0.19,1.93,0.57c0.57,0.38,1.02,0.91,1.36,1.6c0.33,0.68,0.5,1.48,0.5,2.4C267.31,34.94,267.16,35.69,266.86,36.33z"
				/>
			<polygon class="st0" points="272.45,28.68 271.2,28.68 271.2,39.23 271.61,39.23 272.45,39.23 277.41,39.23 277.41,38.15 
				272.45,38.15 			"/>
			<polygon class="st0" points="280.73,28.68 279.48,28.68 279.48,39.23 279.89,39.23 280.73,39.23 285.69,39.23 285.69,38.15 
				280.73,38.15 			"/>
			<polygon class="st0" points="288.96,34.4 292.9,34.4 292.9,33.34 288.96,33.34 288.96,29.77 293.46,29.77 293.46,28.68 
				287.75,28.68 287.75,39.23 293.93,39.23 293.93,38.14 288.96,38.14 			"/>
			<path class="st0" d="M301.16,35.25h2.09v2.69c-0.2,0.09-0.39,0.21-0.61,0.26c-0.45,0.11-0.9,0.17-1.36,0.17
				c-0.83,0-1.56-0.19-2.19-0.56c-0.63-0.37-1.13-0.9-1.48-1.58c-0.35-0.68-0.53-1.46-0.53-2.35c0-0.84,0.15-1.6,0.46-2.25
				c0.3-0.66,0.74-1.17,1.31-1.54c0.57-0.37,1.25-0.55,2.04-0.55c0.48,0,0.98,0.09,1.48,0.28c0.51,0.19,0.99,0.51,1.45,0.97
				l0.56-1.24c-0.43-0.36-0.93-0.63-1.5-0.79c-0.57-0.17-1.15-0.25-1.73-0.25c-0.8,0-1.53,0.14-2.19,0.42
				c-0.66,0.28-1.24,0.67-1.72,1.16c-0.48,0.5-0.85,1.09-1.12,1.77c-0.26,0.68-0.4,1.43-0.4,2.23c0,1.05,0.22,1.97,0.66,2.77
				c0.44,0.8,1.06,1.42,1.87,1.86c0.8,0.44,1.74,0.67,2.82,0.67c0.39,0,0.78-0.03,1.17-0.1c0.39-0.06,0.77-0.16,1.14-0.3
				c0.37-0.13,0.72-0.3,1.05-0.49v-4.27h-3.27V35.25z"/>
			<polygon class="st0" points="308.46,34.4 312.4,34.4 312.4,33.34 308.46,33.34 308.46,29.77 312.96,29.77 312.96,28.68 
				307.25,28.68 307.25,39.23 313.43,39.23 313.43,38.14 308.46,38.14 			"/>
		</g>
		<path class="st0" d="M326.65,29.21c-0.74-0.46-1.58-0.69-2.52-0.69c-0.71,0-1.37,0.13-1.98,0.39c-0.61,0.26-1.16,0.63-1.64,1.11
			c-0.48,0.48-0.85,1.06-1.11,1.73c-0.26,0.67-0.39,1.43-0.39,2.26c0,1.03,0.21,1.95,0.63,2.77c0.42,0.82,1.01,1.46,1.75,1.92
			c0.74,0.46,1.59,0.69,2.53,0.69c0.71,0,1.37-0.13,1.98-0.39c0.61-0.26,1.15-0.63,1.62-1.11c0.46-0.48,0.83-1.06,1.09-1.73
			c0.26-0.67,0.4-1.43,0.4-2.26c0-1.04-0.21-1.96-0.63-2.77C327.96,30.3,327.38,29.67,326.65,29.21z M327.22,36.33
			c-0.29,0.65-0.71,1.15-1.23,1.51c-0.53,0.36-1.14,0.54-1.85,0.54c-0.7,0-1.33-0.19-1.9-0.57c-0.57-0.38-1.02-0.91-1.35-1.6
			c-0.33-0.68-0.49-1.49-0.49-2.4c0-0.86,0.15-1.61,0.44-2.25c0.29-0.65,0.71-1.15,1.23-1.5c0.53-0.35,1.13-0.53,1.81-0.53
			c0.72,0,1.36,0.19,1.93,0.57c0.57,0.38,1.02,0.91,1.36,1.6c0.33,0.68,0.5,1.48,0.5,2.4C327.66,34.94,327.52,35.69,327.22,36.33z"
			/>
		<polygon class="st0" points="331.56,39.23 332.81,39.23 332.81,34.79 336.75,34.79 336.75,33.7 332.81,33.7 332.81,29.77 
			337.31,29.77 337.31,28.68 331.56,28.68 		"/>
	</g>
	<g>
		<polygon class="st0" points="183.7,48.81 178.07,48.81 178.07,44.17 176.8,44.17 176.8,54.72 178.07,54.72 178.07,49.91 
			183.7,49.91 183.7,54.72 184.96,54.72 184.96,44.17 183.7,44.17 		"/>
		<rect x="188.35" y="44.17" class="st0" width="1.3" height="10.55"/>
		<path class="st0" d="M197.75,50.75h2.09v2.69c-0.2,0.09-0.39,0.21-0.61,0.26c-0.45,0.11-0.9,0.17-1.36,0.17
			c-0.83,0-1.56-0.19-2.19-0.56c-0.63-0.37-1.13-0.9-1.48-1.58c-0.35-0.68-0.53-1.46-0.53-2.35c0-0.84,0.15-1.6,0.46-2.25
			c0.3-0.66,0.74-1.17,1.31-1.54c0.57-0.37,1.25-0.55,2.04-0.55c0.48,0,0.98,0.09,1.48,0.28c0.51,0.19,0.99,0.51,1.45,0.97
			l0.56-1.24c-0.43-0.36-0.93-0.63-1.5-0.79s-1.15-0.25-1.73-0.25c-0.8,0-1.53,0.14-2.19,0.42c-0.66,0.28-1.24,0.67-1.72,1.16
			c-0.48,0.5-0.85,1.09-1.12,1.77c-0.26,0.68-0.4,1.43-0.4,2.23c0,1.05,0.22,1.97,0.66,2.77c0.44,0.8,1.06,1.42,1.87,1.86
			c0.8,0.44,1.74,0.67,2.82,0.67c0.39,0,0.78-0.03,1.17-0.1c0.39-0.06,0.77-0.16,1.14-0.3c0.37-0.13,0.72-0.3,1.05-0.49v-4.27h-3.27
			V50.75z"/>
		<polygon class="st0" points="210.74,48.81 205.11,48.81 205.11,44.17 203.84,44.17 203.84,54.72 205.11,54.72 205.11,49.91 
			210.74,49.91 210.74,54.72 211.99,54.72 211.99,44.17 210.74,44.17 		"/>
		<polygon class="st0" points="216.49,49.9 220.43,49.9 220.43,48.84 216.49,48.84 216.49,45.26 220.99,45.26 220.99,44.17 
			215.28,44.17 215.28,54.72 221.46,54.72 221.46,53.63 216.49,53.63 		"/>
		<path class="st0" d="M232.09,53.89c-0.12,0.01-0.22,0.02-0.3,0.02c-0.21,0-0.42-0.04-0.63-0.13c-0.21-0.08-0.43-0.24-0.66-0.46
			c-0.23-0.22-0.5-0.54-0.8-0.95l-1.77-2.44c0.37-0.18,0.72-0.4,1.01-0.68c0.33-0.32,0.59-0.68,0.78-1.09
			c0.19-0.41,0.29-0.85,0.29-1.31c0-0.56-0.14-1.03-0.41-1.44c-0.27-0.4-0.66-0.71-1.16-0.92c-0.5-0.21-1.09-0.32-1.77-0.32h-2.69
			v10.55h1.23v-4.44h1.27c0.12,0,0.22-0.06,0.34-0.07l1.69,2.64c0.31,0.49,0.61,0.89,0.9,1.19c0.28,0.3,0.58,0.51,0.89,0.64
			c0.31,0.13,0.66,0.19,1.05,0.19c0.21,0,0.42-0.02,0.64-0.06c0.22-0.04,0.46-0.11,0.71-0.22l-0.25-0.79
			C232.34,53.85,232.22,53.88,232.09,53.89z M225.21,49.3v-4.12h1.36c0.7,0,1.23,0.17,1.61,0.51c0.37,0.34,0.56,0.8,0.56,1.38
			c0,0.4-0.1,0.76-0.3,1.11c-0.2,0.34-0.45,0.62-0.77,0.82c-0.32,0.2-0.66,0.31-1.03,0.31H225.21z"/>
		<polygon class="st0" points="239.13,49.9 243.07,49.9 243.07,48.84 239.13,48.84 239.13,45.26 243.63,45.26 243.63,44.17 
			237.92,44.17 237.92,54.72 244.11,54.72 244.11,53.63 239.13,53.63 		"/>
		<path class="st0" d="M253.62,45.53c-0.48-0.44-1.06-0.78-1.73-1.01c-0.67-0.23-1.41-0.35-2.21-0.35h-3.05v10.55h2.97
			c0.98,0,1.83-0.16,2.53-0.46c0.7-0.31,1.28-0.73,1.72-1.26c0.44-0.53,0.77-1.12,0.97-1.76c0.21-0.65,0.31-1.31,0.31-1.98
			c0-0.79-0.13-1.5-0.39-2.12C254.47,46.5,254.1,45.97,253.62,45.53z M253.58,51.08c-0.14,0.5-0.37,0.95-0.69,1.35
			c-0.32,0.4-0.74,0.72-1.27,0.95s-1.17,0.34-1.92,0.34h-1.81v-8.55h1.59c1.01,0,1.84,0.19,2.47,0.58c0.63,0.39,1.1,0.91,1.4,1.56
			c0.3,0.65,0.45,1.37,0.45,2.16C253.8,50.05,253.73,50.58,253.58,51.08z"/>
		<path class="st0" d="M264.49,50.62c0,0.62-0.11,1.17-0.34,1.65c-0.23,0.48-0.55,0.85-0.97,1.11c-0.42,0.26-0.93,0.39-1.52,0.39
			c-0.6,0-1.12-0.14-1.56-0.42c-0.44-0.28-0.78-0.68-1.01-1.2c-0.24-0.52-0.35-1.14-0.35-1.85v-6.14h-1.28v6.41
			c0,0.88,0.17,1.63,0.5,2.28c0.33,0.64,0.8,1.14,1.4,1.49c0.6,0.35,1.29,0.53,2.08,0.53c0.85,0,1.58-0.19,2.2-0.57
			c0.62-0.38,1.1-0.91,1.44-1.6c0.34-0.68,0.51-1.49,0.51-2.4v-6.14h-1.09V50.62z"/>
		<path class="st0" d="M274.47,53.58c-0.45,0.21-0.94,0.31-1.48,0.31c-0.69,0-1.32-0.19-1.89-0.57c-0.57-0.38-1.02-0.91-1.36-1.59
			c-0.34-0.68-0.5-1.47-0.5-2.38c0-0.87,0.14-1.62,0.44-2.27c0.29-0.65,0.7-1.15,1.23-1.51c0.53-0.36,1.16-0.54,1.89-0.54
			c0.5,0,0.97,0.09,1.4,0.27c0.43,0.18,0.86,0.45,1.28,0.81l0.59-1.2c-0.45-0.3-0.93-0.52-1.44-0.67c-0.51-0.15-1.03-0.22-1.56-0.22
			c-0.74,0-1.42,0.13-2.05,0.39c-0.63,0.26-1.18,0.64-1.65,1.12c-0.47,0.49-0.84,1.07-1.1,1.75c-0.26,0.68-0.39,1.45-0.39,2.29
			c0,1.06,0.21,1.98,0.63,2.78c0.42,0.8,1,1.42,1.75,1.86c0.75,0.44,1.62,0.67,2.62,0.67c0.62,0,1.21-0.09,1.76-0.27
			c0.55-0.18,1.07-0.45,1.56-0.8l-0.55-1.08C275.31,53.09,274.92,53.37,274.47,53.58z"/>
		<path class="st0" d="M281.41,44.17l-3.98,10.55h1.27l1.2-3.5h3.85l1.2,3.5h1.36l-3.82-10.55H281.41z M280.26,50.15l1.55-4.53
			l1.56,4.53H280.26z"/>
		<polygon class="st0" points="289.92,44.17 286.35,44.17 286.35,45.25 289.92,45.25 289.92,54.72 291.2,54.72 291.2,45.25 
			294.79,45.25 294.79,44.17 291.2,44.17 		"/>
		<rect x="297.01" y="44.17" class="st0" width="1.3" height="10.55"/>
		<path class="st0" d="M308.61,44.7c-0.74-0.46-1.58-0.69-2.52-0.69c-0.71,0-1.37,0.13-1.98,0.39c-0.61,0.26-1.16,0.63-1.64,1.11
			c-0.48,0.48-0.85,1.06-1.11,1.73c-0.26,0.67-0.39,1.43-0.39,2.26c0,1.03,0.21,1.95,0.63,2.77c0.42,0.82,1.01,1.46,1.75,1.92
			c0.74,0.46,1.59,0.69,2.53,0.69c0.71,0,1.37-0.13,1.98-0.39c0.61-0.26,1.15-0.63,1.62-1.11c0.46-0.48,0.83-1.06,1.09-1.73
			c0.26-0.67,0.4-1.43,0.4-2.26c0-1.04-0.21-1.96-0.63-2.77C309.92,45.8,309.35,45.16,308.61,44.7z M309.18,51.83
			c-0.29,0.65-0.71,1.15-1.23,1.51c-0.53,0.36-1.14,0.54-1.85,0.54c-0.7,0-1.33-0.19-1.9-0.57c-0.57-0.38-1.02-0.91-1.35-1.6
			c-0.33-0.68-0.49-1.49-0.49-2.4c0-0.86,0.15-1.61,0.44-2.25c0.29-0.65,0.71-1.15,1.23-1.5c0.53-0.35,1.13-0.53,1.81-0.53
			c0.72,0,1.36,0.19,1.93,0.57c0.57,0.38,1.02,0.91,1.36,1.6c0.33,0.68,0.5,1.48,0.5,2.4C309.63,50.44,309.48,51.18,309.18,51.83z"
			/>
		<polygon class="st0" points="320.66,44.17 320.78,52.6 314.79,44.17 314.49,44.17 313.95,44.17 313.52,44.17 313.52,54.72 
			314.67,54.72 314.52,45.92 320.75,54.72 320.81,54.72 321.26,54.72 321.79,54.72 321.79,44.17 		"/>
	</g>
</g>
</svg>
